<svg xmlns="http://www.w3.org/2000/svg" xmlns:xlink="http://www.w3.org/1999/xlink" width="80" zoomAndPan="magnify" viewBox="0 0 1440 809.999993" height="70" preserveAspectRatio="xMidYMid meet" version="1.0"><defs><g/></defs><rect x="-144" width="1728" fill="#ffffff" y="-80.999999" height="971.999992" fillOpacity="1"/><rect x="-144" width="1728" fill="#ffffff" y="-80.999999" height="971.999992" fillOpacity="1"/><rect x="-144" width="1728" fill="#000000" y="-80.999999" height="971.999992" fillOpacity="1"/><g fill="#ffffff" fillOpacity="1"><g transform="translate(24.870463, 518.69887)"><g><path d="M 324.1875 -217.125 C 330.019531 -219.425781 335.851562 -219.347656 341.6875 -216.890625 C 347.519531 -214.441406 351.507812 -210.300781 353.65625 -204.46875 C 355.8125 -198.632812 355.660156 -192.800781 353.203125 -186.96875 L 278.609375 -13.8125 C 274.609375 -4.601562 267.695312 0 257.875 0 L 257.421875 0 C 247.597656 0 240.691406 -4.601562 236.703125 -13.8125 L 184.65625 -138.609375 L 130.78125 -13.8125 C 126.789062 -4.601562 119.882812 0 110.0625 0 L 109.59375 0 C 99.769531 0 92.863281 -4.601562 88.875 -13.8125 L 16.578125 -187.421875 C 14.117188 -192.953125 14.117188 -198.632812 16.578125 -204.46875 C 19.035156 -210.300781 23.179688 -214.441406 29.015625 -216.890625 C 34.847656 -219.046875 40.601562 -218.972656 46.28125 -216.671875 C 51.957031 -214.367188 56.023438 -210.300781 58.484375 -204.46875 L 110.515625 -80.59375 L 163.9375 -204.921875 C 166.394531 -210.753906 170.539062 -214.820312 176.375 -217.125 C 182.207031 -219.425781 188.039062 -219.347656 193.875 -216.890625 C 196.320312 -215.660156 198.007812 -214.585938 198.9375 -213.671875 C 201.695312 -211.523438 204.148438 -208.457031 206.296875 -204.46875 L 257.875 -80.59375 L 311.765625 -204.921875 C 314.210938 -210.753906 318.351562 -214.820312 324.1875 -217.125 Z M 324.1875 -217.125 "/></g></g></g><g fill="#ffffff" fillOpacity="1"><g transform="translate(361.961156, 518.69887)"><g><path d="M 224.71875 -94.40625 C 224.101562 -94.09375 223.03125 -93.9375 221.5 -93.9375 L 75.515625 -93.484375 C 78.585938 -79.359375 85.492188 -67.84375 96.234375 -58.9375 C 106.984375 -50.039062 120.1875 -44.671875 135.84375 -42.828125 C 161.9375 -39.753906 184.503906 -45.429688 203.546875 -59.859375 C 217.972656 -64.773438 227.332031 -62.164062 231.625 -52.03125 C 236.226562 -40.675781 232.085938 -31.316406 219.203125 -23.953125 C 198.015625 -4.910156 168.082031 2.921875 129.40625 -0.453125 C 99.925781 -3.523438 75.898438 -15.421875 57.328125 -36.140625 C 38.753906 -56.867188 29.46875 -81.351562 29.46875 -109.59375 C 29.46875 -139.6875 40.054688 -165.398438 61.234375 -186.734375 C 82.421875 -208.066406 108.0625 -218.734375 138.15625 -218.734375 C 167.625 -218.734375 192.488281 -208.753906 212.75 -188.796875 C 233.007812 -168.847656 243.140625 -144.441406 243.140625 -115.578125 C 243.140625 -110.359375 241.375 -105.753906 237.84375 -101.765625 C 234.3125 -97.773438 229.9375 -95.320312 224.71875 -94.40625 Z M 138.15625 -177.296875 C 122.5 -177.296875 108.835938 -172.613281 97.171875 -163.25 C 85.503906 -153.882812 78.132812 -141.21875 75.0625 -125.25 L 198.015625 -125.71875 C 195.867188 -141.0625 189.34375 -153.492188 178.4375 -163.015625 C 167.539062 -172.535156 154.113281 -177.296875 138.15625 -177.296875 Z M 138.15625 -177.296875 "/></g></g></g><g fill="#ffffff" fillOpacity="1"><g transform="translate(581.622615, 518.69887)"><g><path d="M 150.125 -217.359375 C 180.519531 -217.359375 206.382812 -206.6875 227.71875 -185.34375 C 249.050781 -164.007812 259.71875 -138.300781 259.71875 -108.21875 C 259.71875 -78.132812 249.050781 -52.347656 227.71875 -30.859375 C 206.382812 -9.367188 180.519531 1.375 150.125 1.375 C 120.039062 1.375 94.253906 -9.367188 72.765625 -30.859375 C 51.273438 -52.347656 40.53125 -78.132812 40.53125 -108.21875 L 40.53125 -300.703125 C 40.53125 -306.535156 42.597656 -311.597656 46.734375 -315.890625 C 50.878906 -320.191406 55.71875 -322.34375 61.25 -322.34375 C 67.082031 -322.34375 71.992188 -320.269531 75.984375 -316.125 C 79.972656 -311.988281 81.96875 -306.847656 81.96875 -300.703125 L 81.96875 -193.40625 C 101.925781 -209.375 124.644531 -217.359375 150.125 -217.359375 Z M 104.296875 -62.15625 C 117.035156 -49.570312 132.304688 -43.28125 150.109375 -43.28125 C 167.921875 -43.28125 183.195312 -49.648438 195.9375 -62.390625 C 208.675781 -75.140625 215.046875 -90.414062 215.046875 -108.21875 C 215.046875 -126.019531 208.675781 -141.210938 195.9375 -153.796875 C 183.195312 -166.390625 167.921875 -172.6875 150.109375 -172.6875 C 132.304688 -172.6875 117.035156 -166.390625 104.296875 -153.796875 C 91.554688 -141.210938 85.1875 -126.019531 85.1875 -108.21875 C 85.1875 -90.101562 91.554688 -74.75 104.296875 -62.15625 Z M 104.296875 -62.15625 "/></g></g></g><g fill="#ffffff" fillOpacity="1"><g transform="translate(810.954648, 518.69887)"><g><path d="M 150.125 -217.359375 C 180.519531 -217.359375 206.382812 -206.6875 227.71875 -185.34375 C 249.050781 -164.007812 259.71875 -138.300781 259.71875 -108.21875 C 259.71875 -78.132812 249.050781 -52.347656 227.71875 -30.859375 C 206.382812 -9.367188 180.519531 1.375 150.125 1.375 C 120.039062 1.375 94.253906 -9.367188 72.765625 -30.859375 C 51.273438 -52.347656 40.53125 -78.132812 40.53125 -108.21875 L 40.53125 -300.703125 C 40.53125 -306.535156 42.597656 -311.597656 46.734375 -315.890625 C 50.878906 -320.191406 55.71875 -322.34375 61.25 -322.34375 C 67.082031 -322.34375 71.992188 -320.269531 75.984375 -316.125 C 79.972656 -311.988281 81.96875 -306.847656 81.96875 -300.703125 L 81.96875 -193.40625 C 101.925781 -209.375 124.644531 -217.359375 150.125 -217.359375 Z M 104.296875 -62.15625 C 117.035156 -49.570312 132.304688 -43.28125 150.109375 -43.28125 C 167.921875 -43.28125 183.195312 -49.648438 195.9375 -62.390625 C 208.675781 -75.140625 215.046875 -90.414062 215.046875 -108.21875 C 215.046875 -126.019531 208.675781 -141.210938 195.9375 -153.796875 C 183.195312 -166.390625 167.921875 -172.6875 150.109375 -172.6875 C 132.304688 -172.6875 117.035156 -166.390625 104.296875 -153.796875 C 91.554688 -141.210938 85.1875 -126.019531 85.1875 -108.21875 C 85.1875 -90.101562 91.554688 -74.75 104.296875 -62.15625 Z M 104.296875 -62.15625 "/></g></g></g><g fill="#ffffff" fillOpacity="1"><g transform="translate(1040.286727, 518.69887)"><g><path d="M 83.34375 -251.890625 C 78.4375 -246.671875 72.296875 -244.0625 64.921875 -244.0625 C 57.554688 -244.0625 51.34375 -246.671875 46.28125 -251.890625 C 41.21875 -257.109375 38.6875 -263.398438 38.6875 -270.765625 C 38.6875 -278.140625 41.21875 -284.359375 46.28125 -289.421875 C 51.34375 -294.484375 57.554688 -297.015625 64.921875 -297.015625 C 72.296875 -297.015625 78.4375 -294.484375 83.34375 -289.421875 C 88.257812 -284.359375 90.71875 -278.140625 90.71875 -270.765625 C 90.71875 -263.398438 88.257812 -257.109375 83.34375 -251.890625 Z M 80.59375 -6.671875 C 75.988281 -2.222656 70.613281 0 64.46875 0 C 58.332031 0 53.113281 -2.222656 48.8125 -6.671875 C 44.507812 -11.128906 42.359375 -16.425781 42.359375 -22.5625 L 42.359375 -195.71875 C 42.359375 -201.851562 44.507812 -207.144531 48.8125 -211.59375 C 53.113281 -216.050781 58.332031 -218.28125 64.46875 -218.28125 C 70.613281 -218.28125 75.988281 -216.050781 80.59375 -211.59375 C 85.195312 -207.144531 87.5 -201.851562 87.5 -195.71875 L 87.5 -22.5625 C 87.5 -16.425781 85.195312 -11.128906 80.59375 -6.671875 Z M 80.59375 -6.671875 "/></g></g></g><g fill="#ffffff" fillOpacity="1"><g transform="translate(1107.520488, 518.69887)"><g><path d="M 224.71875 -94.40625 C 224.101562 -94.09375 223.03125 -93.9375 221.5 -93.9375 L 75.515625 -93.484375 C 78.585938 -79.359375 85.492188 -67.84375 96.234375 -58.9375 C 106.984375 -50.039062 120.1875 -44.671875 135.84375 -42.828125 C 161.9375 -39.753906 184.503906 -45.429688 203.546875 -59.859375 C 217.972656 -64.773438 227.332031 -62.164062 231.625 -52.03125 C 236.226562 -40.675781 232.085938 -31.316406 219.203125 -23.953125 C 198.015625 -4.910156 168.082031 2.921875 129.40625 -0.453125 C 99.925781 -3.523438 75.898438 -15.421875 57.328125 -36.140625 C 38.753906 -56.867188 29.46875 -81.351562 29.46875 -109.59375 C 29.46875 -139.6875 40.054688 -165.398438 61.234375 -186.734375 C 82.421875 -208.066406 108.0625 -218.734375 138.15625 -218.734375 C 167.625 -218.734375 192.488281 -208.753906 212.75 -188.796875 C 233.007812 -168.847656 243.140625 -144.441406 243.140625 -115.578125 C 243.140625 -110.359375 241.375 -105.753906 237.84375 -101.765625 C 234.3125 -97.773438 229.9375 -95.320312 224.71875 -94.40625 Z M 138.15625 -177.296875 C 122.5 -177.296875 108.835938 -172.613281 97.171875 -163.25 C 85.503906 -153.882812 78.132812 -141.21875 75.0625 -125.25 L 198.015625 -125.71875 C 195.867188 -141.0625 189.34375 -153.492188 178.4375 -163.015625 C 167.539062 -172.535156 154.113281 -177.296875 138.15625 -177.296875 Z M 138.15625 -177.296875 "/></g></g></g><g fill="#ffff00" fillOpacity="1"><g transform="translate(1327.175103, 518.69887)"><g><path d="M 80.359375 -7.59375 C 75.296875 -2.53125 69.234375 0 62.171875 0 C 55.109375 0 49.117188 -2.53125 44.203125 -7.59375 C 39.296875 -12.664062 36.84375 -18.726562 36.84375 -25.78125 C 36.84375 -32.84375 39.296875 -38.828125 44.203125 -43.734375 C 49.117188 -48.648438 55.109375 -51.109375 62.171875 -51.109375 C 69.234375 -51.109375 75.296875 -48.648438 80.359375 -43.734375 C 85.421875 -38.828125 87.953125 -32.84375 87.953125 -25.78125 C 87.953125 -18.726562 85.421875 -12.664062 80.359375 -7.59375 Z M 80.359375 -7.59375 "/></g></g></g><g fill="#ffffff" fillOpacity="1"><g transform="translate(93.640365, 651.462435)"><g><path d="M 38.03125 0 C 42.953125 0 46.980469 -4.027344 46.980469 -8.949219 L 46.980469 -35.796875 C 46.980469 -40.71875 42.953125 -44.746094 38.03125 -44.746094 L 2.238281 -44.746094 L 2.238281 0 Z M 11.1875 -35.796875 L 38.03125 -35.796875 L 38.03125 -8.949219 L 11.1875 -8.949219 Z M 11.1875 -35.796875 "/></g></g></g><g fill="#ffffff" fillOpacity="1"><g transform="translate(168.14055, 651.462435)"><g><path d="M 46.980469 0 L 46.980469 -8.949219 L 29.085938 -8.949219 L 29.085938 -35.796875 L 46.980469 -35.796875 L 46.980469 -44.746094 L 2.238281 -44.746094 L 2.238281 -35.796875 L 20.136719 -35.796875 L 20.136719 -8.949219 L 2.238281 -8.949219 L 2.238281 0 Z M 46.980469 0 "/></g></g></g><g fill="#ffffff" fillOpacity="1"><g transform="translate(242.640735, 651.462435)"><g><path d="M 46.980469 -44.746094 L 11.1875 -44.746094 C 6.265625 -44.746094 2.238281 -40.71875 2.238281 -35.796875 L 2.238281 -8.949219 C 2.238281 -4.027344 6.265625 0 11.1875 0 L 38.03125 0 C 43.011719 0 46.980469 -4.082031 46.980469 -8.949219 L 46.980469 -26.847656 L 20.136719 -26.847656 L 20.136719 -17.898438 L 38.03125 -17.898438 L 38.03125 -8.949219 L 11.1875 -8.949219 L 11.1875 -35.796875 L 46.980469 -35.796875 Z M 46.980469 -44.746094 "/></g></g></g><g fill="#ffffff" fillOpacity="1"><g transform="translate(317.140921, 651.462435)"><g><path d="M 46.980469 0 L 46.980469 -8.949219 L 29.085938 -8.949219 L 29.085938 -35.796875 L 46.980469 -35.796875 L 46.980469 -44.746094 L 2.238281 -44.746094 L 2.238281 -35.796875 L 20.136719 -35.796875 L 20.136719 -8.949219 L 2.238281 -8.949219 L 2.238281 0 Z M 46.980469 0 "/></g></g></g><g fill="#ffffff" fillOpacity="1"><g transform="translate(391.641106, 651.462435)"><g><path d="M 46.980469 -44.746094 L 2.238281 -44.746094 L 2.238281 -35.796875 L 20.136719 -35.796875 L 20.136719 0 L 29.085938 0 L 29.085938 -35.796875 L 46.980469 -35.796875 Z M 46.980469 -44.746094 "/></g></g></g><g fill="#ffffff" fillOpacity="1"><g transform="translate(466.141274, 651.462435)"><g><path d="M 11.1875 -44.746094 C 6.265625 -44.746094 2.238281 -40.71875 2.238281 -35.796875 L 2.238281 0 L 11.1875 0 L 11.1875 -17.898438 L 38.03125 -17.898438 L 38.03125 0 L 46.980469 0 L 46.980469 -35.796875 C 46.980469 -40.71875 42.953125 -44.746094 38.03125 -44.746094 Z M 11.1875 -35.796875 L 38.03125 -35.796875 L 38.03125 -26.847656 L 11.1875 -26.847656 Z M 11.1875 -35.796875 "/></g></g></g><g fill="#ffffff" fillOpacity="1"><g transform="translate(540.641441, 651.462435)"><g><path d="M 46.980469 0 L 46.980469 -8.949219 L 11.1875 -8.949219 L 11.1875 -44.746094 L 2.238281 -44.746094 L 2.238281 -8.949219 C 2.238281 -4.027344 6.265625 0 11.1875 0 Z M 46.980469 0 "/></g></g></g><g fill="#ffffff" fillOpacity="1"><g transform="translate(615.141609, 651.462435)"><g><path d="M 46.980469 0 L 46.980469 -8.949219 L 11.1875 -8.949219 L 11.1875 -44.746094 L 2.238281 -44.746094 L 2.238281 -8.949219 C 2.238281 -4.027344 6.265625 0 11.1875 0 Z M 46.980469 0 "/></g></g></g><g fill="#ffffff" fillOpacity="1"><g transform="translate(689.641777, 651.462435)"><g><path d="M 38.03125 -26.847656 L 11.1875 -26.847656 L 11.1875 -44.746094 L 2.238281 -44.746094 L 2.238281 -26.847656 C 2.238281 -21.925781 6.265625 -17.898438 11.1875 -17.898438 L 38.03125 -17.898438 L 38.03125 -8.949219 L 2.238281 -8.949219 L 2.238281 0 L 38.03125 0 C 42.953125 0 46.980469 -4.027344 46.980469 -8.949219 L 46.980469 -44.746094 L 38.03125 -44.746094 Z M 38.03125 -26.847656 "/></g></g></g><g fill="#ffffff" fillOpacity="1"><g transform="translate(764.141944, 651.462435)"><g/></g></g><g fill="#ffffff" fillOpacity="1"><g transform="translate(814.032418, 651.462435)"><g><path d="M 46.980469 -44.746094 L 11.1875 -44.746094 C 6.265625 -44.746094 2.238281 -40.71875 2.238281 -35.796875 L 2.238281 -26.847656 C 2.238281 -21.925781 6.265625 -17.898438 11.1875 -17.898438 L 38.03125 -17.898438 L 38.03125 -8.949219 L 2.238281 -8.949219 L 2.238281 0 L 38.03125 0 C 42.953125 0 46.980469 -4.027344 46.980469 -8.949219 L 46.980469 -17.898438 C 46.980469 -22.820312 42.953125 -26.847656 38.03125 -26.847656 L 11.1875 -26.847656 L 11.1875 -35.796875 L 46.980469 -35.796875 Z M 46.980469 -44.746094 "/></g></g></g><g fill="#ffffff" fillOpacity="1"><g transform="translate(888.532586, 651.462435)"><g><path d="M 46.980469 -44.746094 L 36.242188 -44.746094 C 35.011719 -44.746094 33.894531 -44.296875 33 -43.402344 L 16.445312 -26.847656 L 11.1875 -26.847656 L 11.1875 -44.746094 L 2.238281 -44.746094 L 2.238281 0 L 11.1875 0 L 11.1875 -17.898438 L 16.445312 -17.898438 L 33 -1.34375 C 33.894531 -0.449219 35.011719 0 36.242188 0 L 46.980469 0 L 46.980469 -8.949219 L 38.03125 -8.949219 L 24.609375 -22.371094 L 38.03125 -35.796875 L 46.980469 -35.796875 Z M 46.980469 -44.746094 "/></g></g></g><g fill="#ffffff" fillOpacity="1"><g transform="translate(963.032753, 651.462435)"><g><path d="M 46.980469 0 L 46.980469 -8.949219 L 29.085938 -8.949219 L 29.085938 -35.796875 L 46.980469 -35.796875 L 46.980469 -44.746094 L 2.238281 -44.746094 L 2.238281 -35.796875 L 20.136719 -35.796875 L 20.136719 -8.949219 L 2.238281 -8.949219 L 2.238281 0 Z M 46.980469 0 "/></g></g></g><g fill="#ffffff" fillOpacity="1"><g transform="translate(1037.532921, 651.462435)"><g><path d="M 46.980469 0 L 46.980469 -8.949219 L 11.1875 -8.949219 L 11.1875 -44.746094 L 2.238281 -44.746094 L 2.238281 -8.949219 C 2.238281 -4.027344 6.265625 0 11.1875 0 Z M 46.980469 0 "/></g></g></g><g fill="#ffffff" fillOpacity="1"><g transform="translate(1112.033088, 651.462435)"><g><path d="M 46.980469 0 L 46.980469 -8.949219 L 11.1875 -8.949219 L 11.1875 -44.746094 L 2.238281 -44.746094 L 2.238281 -8.949219 C 2.238281 -4.027344 6.265625 0 11.1875 0 Z M 46.980469 0 "/></g></g></g><g fill="#ffffff" fillOpacity="1"><g transform="translate(1186.533256, 651.462435)"><g><path d="M 46.980469 -44.746094 L 11.1875 -44.746094 C 6.265625 -44.746094 2.238281 -40.71875 2.238281 -35.796875 L 2.238281 -8.949219 C 2.238281 -4.027344 6.265625 0 11.1875 0 L 46.980469 0 L 46.980469 -8.949219 L 11.1875 -8.949219 L 11.1875 -17.898438 L 46.980469 -17.898438 L 46.980469 -26.847656 L 11.1875 -26.847656 L 11.1875 -35.796875 L 46.980469 -35.796875 Z M 46.980469 -44.746094 "/></g></g></g><g fill="#ffffff" fillOpacity="1"><g transform="translate(1261.033424, 651.462435)"><g><path d="M 38.03125 0 C 42.953125 0 46.980469 -4.027344 46.980469 -8.949219 L 46.980469 -35.796875 C 46.980469 -40.71875 42.953125 -44.746094 38.03125 -44.746094 L 2.238281 -44.746094 L 2.238281 0 Z M 11.1875 -35.796875 L 38.03125 -35.796875 L 38.03125 -8.949219 L 11.1875 -8.949219 Z M 11.1875 -35.796875 "/></g></g></g></svg>